<svg width="332" height="332" viewBox="0 0 332 332" fill="none" xmlns="http://www.w3.org/2000/svg">
<rect width="332" height="332" rx="99.6" fill="#F04438"/>
<rect width="332" height="332" rx="99.6" fill="url(#paint0_linear_14_2990)"/>
<path fill-rule="evenodd" clip-rule="evenodd" d="M121.502 58.366L124.012 60.3977C135.13 69.3983 158.36 82.414 186.947 88.2396C213.152 93.5801 243.61 92.8368 273.343 77.6756C277.773 75.4169 283.282 76.6121 286.052 80.7415C205.921 140.558 106.296 140.866 52.4168 111.061L45.9429 107.479L121.502 58.366ZM63.4315 106.711C106.288 126.872 175.706 128.992 240.394 98.0236C221.002 101.475 202.163 100.41 185.172 96.9471C157.137 91.2337 133.879 78.9495 120.987 69.2998L63.4315 106.711Z" fill="white"/>
<path d="M41.4998 194.927C98.1511 179.376 172.575 193.816 198.124 212.7L288.1 154.938C231.448 131.611 118.146 140.498 41.4998 194.927Z" fill="white"/>
<path fill-rule="evenodd" clip-rule="evenodd" d="M197.946 243.522L195.483 241.701C183.418 232.784 160.773 223.548 134.665 217.669C111.717 212.502 86.6168 210.048 64.4016 212.487C59.523 213.023 54.9108 209.825 54.0518 204.993C79.8192 200.412 109.887 202.981 136.617 209C161.681 214.643 184.405 223.457 198.239 232.775L285.699 176.627C288.351 180.757 287.152 186.255 283.022 188.906L197.946 243.522Z" fill="white"/>
<path fill-rule="evenodd" clip-rule="evenodd" d="M197.947 273.635L195.483 271.814C171.934 254.408 127.522 234.796 71.6604 234.755C66.7525 234.751 62.6221 230.937 62.4437 226.033C122.687 223.842 171.373 243.922 198.269 262.867L285.699 206.739C288.351 210.87 287.152 216.367 283.022 219.018L197.947 273.635Z" fill="white"/>
<defs>
<linearGradient id="paint0_linear_14_2990" x1="62.0433" y1="-245.725" x2="452.949" y2="-147.025" gradientUnits="userSpaceOnUse">
<stop stop-color="#DC2626"/>
<stop offset="1" stop-color="#FBBF24"/>
</linearGradient>
</defs>
</svg>
